<svg xmlns="http://www.w3.org/2000/svg" xmlns:svg="http://www.w3.org/2000/svg" id="svg8" width="210mm" height="210mm" version="1.1" viewBox="0 0 210 210"><metadata id="metadata5"/><g id="g5715" transform="matrix(3.0467595,0,0,3.0467595,-185.5396,516.01579)"><path id="path856" d="m 78.583221,-163.9614 a 33.554267,34.248605 60 0 0 -5.993562,4.4259 l 1.332575,12.2557 -11.667292,5.14438 a 33.554267,34.248605 60 0 0 -0.301311,14.33268 l 11.968476,5.27738 -1.411981,12.98544 a 33.554267,34.248605 60 0 0 12.547989,6.93342 l 10.302035,-7.54175 9.9647,7.29469 a 33.554267,34.248605 60 0 0 6.81267,-2.9901 33.554267,34.248605 60 0 0 5.99305,-4.42602 l -1.33258,-12.25571 11.66727,-5.14437 a 33.554267,34.248605 60 0 0 0.30164,-14.33287 l -11.96879,-5.27721 1.41199,-12.98542 a 33.554267,34.248605 60 0 0 -12.548,-6.93345 l -10.302027,7.54176 -9.964524,-7.29434 a 33.554267,34.248605 60 0 0 -6.812328,2.98989 z" style="opacity:.98999999;fill:#9aca3c;fill-opacity:1;fill-rule:evenodd;stroke:#000;stroke-width:0;stroke-miterlimit:0;stroke-dasharray:none;stroke-opacity:1"/><ellipse style="opacity:.98999999;fill:silver;fill-opacity:1;fill-rule:evenodd;stroke:#000;stroke-width:0;stroke-miterlimit:0;stroke-dasharray:none;stroke-opacity:1" id="ellipse858" cx="95.36" cy="-134.903" rx="29.053" ry="28.464"/><ellipse id="ellipse860" cx="95.36" cy="-134.903" rx="20.024" ry="19.618" style="opacity:.98999999;fill:#333;fill-opacity:1;fill-rule:evenodd;stroke:#000;stroke-width:0;stroke-miterlimit:0;stroke-dasharray:none;stroke-opacity:1"/><path style="display:inline;opacity:1;fill:#9aca3c;fill-opacity:1;fill-rule:evenodd;stroke:#000;stroke-width:0;stroke-linecap:butt;stroke-linejoin:miter;stroke-miterlimit:4;stroke-dasharray:none;stroke-opacity:1" id="path862" d="m 91.917722,-146.41033 4.13443,11.25492 4.762838,-11.08249 h 6.58671 l -10.690498,26.6228 h -7.27643 l 3.13818,-7.3799 -7.83683,-19.41533 c 2.39386,-1e-5 4.78774,0 7.1816,0 z"/></g></svg>